HIERARCHY
ROOT root
{
	OFFSET	0	13.1	24.9
	CHANNELS 6  Xposition Yposition Zposition Xrotation Yrotation Zrotation
	JOINT spine_1
	{
		OFFSET	0	9.99999	0
		CHANNELS 3  Xrotation Yrotation Zrotation
		JOINT spine_2
		{
			OFFSET	0	112	-10
			CHANNELS 3  Xrotation Yrotation Zrotation
			JOINT spine_3
			{
				OFFSET	0	206.5	19.3
				CHANNELS 3  Xrotation Yrotation Zrotation
				JOINT spine_4
				{
					OFFSET	0	110.4	14.6
					CHANNELS 3  Xrotation Yrotation Zrotation
					JOINT neck_1
					{
						OFFSET	0	71.8	-50.3
						CHANNELS 3  Xrotation Yrotation Zrotation
						JOINT neck_2
						{
							OFFSET	0	86.2	-25.8
							CHANNELS 3  Xrotation Yrotation Zrotation
							JOINT head_ee
							{
								OFFSET	0	179.8	-8.7
								CHANNELS 3  Xrotation Yrotation Zrotation
								End Site
								{
									OFFSET	1	0	0
								}
							}
						}
					}
					JOINT left_clavicle
					{
						OFFSET	-43.2	22.4	-70.8
						CHANNELS 3  Xrotation Yrotation Zrotation
						JOINT left_shoulder
						{
							OFFSET	-93.9	-5.79999	48.7
							CHANNELS 3  Xrotation Yrotation Zrotation
							JOINT left_elbow
							{
								OFFSET	-291.4	-30.8	15.2
								CHANNELS 3  Xrotation Yrotation Zrotation
								JOINT left_lowarm_twist
								{
									OFFSET	-110.7	-3.89999	13.6
									CHANNELS 3  Xrotation Yrotation Zrotation
									JOINT left_hand
									{
										OFFSET	-110.7	-3.89999	13.6
										CHANNELS 3  Xrotation Yrotation Zrotation
										JOINT left_ee
										{
											OFFSET	-80.8	-5.10001	12.1
											CHANNELS 3  Xrotation Yrotation Zrotation
											End Site
											{
												OFFSET	1	0	0
											}
										}
									}
								}
							}
						}
					}
					JOINT right_clavicle
					{
						OFFSET	43.2	22.4	-70.8
						CHANNELS 3  Xrotation Yrotation Zrotation
						JOINT right_shoulder
						{
							OFFSET	93.9	-5.79999	48.7
							CHANNELS 3  Xrotation Yrotation Zrotation
							JOINT right_elbow
							{
								OFFSET	291.4	-30.8	15.2
								CHANNELS 3  Xrotation Yrotation Zrotation
								JOINT right_lowarm_twist
								{
									OFFSET	110.7	-3.89999	13.6
									CHANNELS 3  Xrotation Yrotation Zrotation
									JOINT right_hand
									{
										OFFSET	110.7	-3.89999	13.6
										CHANNELS 3  Xrotation Yrotation Zrotation
										JOINT right_ee
										{
											OFFSET	80.8	-5.10001	12.1
											CHANNELS 3  Xrotation Yrotation Zrotation
											End Site
											{
												OFFSET	1	0	0
											}
										}
									}
								}
							}
						}
					}
				}
			}
		}
	}
	JOINT left_hip
	{
		OFFSET	-82.8	-127.5	0.300001
		CHANNELS 3  Xrotation Yrotation Zrotation
		JOINT left_knee
		{
			OFFSET	-28.2	-396.7	2.2
			CHANNELS 3  Xrotation Yrotation Zrotation
			JOINT left_ankle
			{
				OFFSET	-11.7	-411.3	35.4
				CHANNELS 3  Xrotation Yrotation Zrotation
				JOINT left_toes
				{
					OFFSET	0	-60	-88.6
					CHANNELS 3  Xrotation Yrotation Zrotation
					JOINT left_foot_ee
					{
						OFFSET	-22.5	-16.5	-42.2
						CHANNELS 3  Xrotation Yrotation Zrotation
						End Site
						{
							OFFSET	1	0	0
						}
					}
				}
			}
		}
	}
	JOINT right_hip
	{
		OFFSET	82.8	-127.5	0.300001
		CHANNELS 3  Xrotation Yrotation Zrotation
		JOINT right_knee
		{
			OFFSET	28.2	-396.7	2.2
			CHANNELS 3  Xrotation Yrotation Zrotation
			JOINT right_ankle
			{
				OFFSET	11.7	-411.3	35.4
				CHANNELS 3  Xrotation Yrotation Zrotation
				JOINT right_toes
				{
					OFFSET	0	-60	-88.6
					CHANNELS 3  Xrotation Yrotation Zrotation
					JOINT right_foot_ee
					{
						OFFSET	22.5	-16.5	-42.2
						CHANNELS 3  Xrotation Yrotation Zrotation
						End Site
						{
							OFFSET	1	0	0
						}
					}
				}
			}
		}
	}
}
MOTION
Frames: 13
Frame Time: 0.02
1404.17 699.194 -532.319 177.079 -67.9892 177.648 -1.49944 -0.39354 -0.999887 -1.49895 -0.329121 -1.0229 -1.49241 -0.0789255 -1.07164 -1.49393 -0.247171 -1.04573 -23.8852 10.0966 13.0481 -23.7403 13.7899 16.9212 -0.0 0.0 -0.0 1.51534 11.084 3.88384 11.1783 -20.2009 63.7042 3.67955 -61.2338 2.17803 -3.50584 -0.136641 0.42671 0.105883 4.69994 2.6636 -0.0 0.0 -0.0 7.53966 20.0794 -13.952 -34.8689 33.241 -58.0206 0.271458 7.65894 -0.0181706 16.6629 -0.283203 2.10222 3.72295 -1.16081 -26.2277 0.0 0.0 0.0 -18.2282 20.445 10.6072 -16.4192 0.321087 2.49063 28.1882 15.3504 -3.73727 -14.5393 0.0 0.0 -0.0 0.0 -0.0 41.839 41.4788 -19.2769 -6.80849 -0.219858 -1.02116 -19.6474 2.49261 -3.01067 -25.0955 0.0 0.0 0.0 0.0 0.0 
1422.32 698.588 -529.429 176.64 -68.9977 177.235 -1.58577 -0.422313 -1.20144 -1.58503 -0.345012 -1.22587 -1.57671 -0.0446914 -1.2727 -1.57888 -0.245115 -1.24968 -22.8393 10.2115 12.0206 -22.7672 14.2403 15.8511 -0.0 0.0 -0.0 1.50695 10.9093 3.85538 9.75117 -20.6692 64.5968 3.74987 -61.6884 2.23981 -4.83721 -0.195344 0.586478 0.369602 3.39592 3.86929 -0.0 0.0 -0.0 8.01738 21.5801 -14.8789 -34.6926 33.4897 -57.67 0.319408 8.99129 -0.0251136 16.1522 -0.283664 2.03699 3.78128 -1.52459 -26.8081 0.0 0.0 0.0 -18.4829 18.7432 9.95174 -17.4955 0.317044 2.65571 25.2421 12.7181 -3.37767 -14.2884 0.0 0.0 -0.0 0.0 -0.0 42.5871 41.4058 -20.2049 -10.3922 -0.286431 -1.56696 -19.8968 2.43877 -3.04856 -24.3964 0.0 0.0 0.0 0.0 0.0 
1445.44 696.269 -523.299 172.731 -69.6766 173.499 -1.81875 -0.394697 -1.32288 -1.81783 -0.309726 -1.34531 -1.8094 0.0235132 -1.3803 -1.81201 -0.194754 -1.3667 -21.5838 10.8345 12.2877 -21.4994 15.0495 16.149 -0.0 0.0 -0.0 1.43621 10.2803 3.68243 8.21141 -21.146 65.2132 3.46049 -59.7282 1.98739 -5.07552 -0.206243 0.614932 0.344594 2.72872 3.42994 -0.0 0.0 -0.0 8.41023 22.7812 -15.6415 -33.2668 33.6143 -57.5912 0.376306 10.5596 -0.034775 16.2155 -0.283638 2.04507 3.91259 -1.31109 -27.7124 0.0 0.0 0.0 -18.457 17.644 8.95408 -21.4455 0.275661 3.26025 22.2328 13.2407 -3.02192 -14.4345 0.0 0.0 -0.0 0.0 -0.0 41.2443 41.628 -19.8896 -13.1595 -0.31441 -1.9906 -21.1612 4.67732 -3.27088 -23.9699 0.0 0.0 0.0 0.0 0.0 
1465.58 696.598 -524.601 171.877 -70.1297 172.576 -1.9345 -0.381842 -1.43711 -1.9334 -0.289632 -1.45848 -1.92467 0.0732806 -1.48515 -1.92771 -0.162165 -1.47809 -20.9466 10.8199 11.9174 -20.8721 15.0576 15.69 -0.0 0.0 -0.0 1.66869 7.17257 3.83214 6.49795 -22.7104 65.8861 2.89448 -55.0963 1.5101 -4.97898 -0.201814 0.60341 0.383051 2.94951 3.77568 -0.0 0.0 -0.0 8.34299 24.0228 -15.3785 -32.7132 33.6551 -57.278 0.376752 10.5718 -0.034857 15.9888 -0.283689 2.01611 4.02008 -1.12599 -28.4546 0.0 0.0 0.0 -18.1469 16.889 8.09162 -22.94 0.24915 3.48805 20.0862 11.6949 -2.75013 -14.2395 0.0 0.0 -0.0 0.0 -0.0 40.9437 41.6518 -19.9079 -15.0009 -0.321678 -2.27302 -22.0835 5.45556 -3.42512 -23.1719 0.0 0.0 0.0 0.0 0.0 
1491.47 701.818 -519.855 171.92 -70.4689 173.452 -2.01559 -0.17962 -1.53496 -2.01428 -0.081594 -1.54327 -2.01074 0.298038 -1.51643 -2.01395 0.0548367 -1.54446 -20.0621 11.1065 10.9421 -20.068 15.9053 14.7721 -0.0 0.0 -0.0 2.07575 5.35826 4.42426 4.67317 -22.7851 67.0586 2.50626 -51.1418 1.19938 -7.76336 -0.337334 0.932629 0.373907 2.26299 3.43316 -0.0 0.0 -0.0 8.74857 26.8183 -15.9917 -30.641 33.263 -57.3236 0.378234 10.6124 -0.0351292 14.6444 -0.281631 1.84442 3.92971 -3.78006 -28.8004 0.0 0.0 0.0 -17.4592 16.3286 6.9203 -25.0275 0.20219 3.80494 17.9116 11.2375 -2.47437 -14.7214 0.0 0.0 -0.0 0.0 -0.0 40.7697 40.8812 -20.5953 -16.4802 -0.320941 -2.49998 -21.9403 6.63912 -3.42141 -23.1497 0.0 0.0 0.0 0.0 0.0 
1517.22 705.031 -514.276 172.659 -70.1218 174.17 -2.01899 -0.135401 -1.37208 -2.01795 -0.0478263 -1.37792 -2.01576 0.290484 -1.3478 -2.01828 0.0739994 -1.37676 -17.7868 11.8244 10.0091 -17.8416 17.3076 13.8072 -0.0 0.0 -0.0 1.93482 4.15423 4.07113 2.22755 -22.1824 67.7727 2.22384 -47.762 0.984687 -8.87185 -0.395722 1.06182 0.398179 2.05293 3.50816 -0.0 0.0 -0.0 8.97096 27.9993 -16.3524 -28.7404 33.4585 -57.8994 0.379764 10.6544 -0.0354116 13.8942 -0.278732 1.74864 3.91544 -3.96161 -28.7604 0.0 0.0 0.0 -15.461 15.8691 4.57956 -26.4303 0.164159 4.01684 13.568 9.96306 -1.90512 -15.7819 0.0 0.0 -0.0 0.0 -0.0 40.2756 40.6068 -21.0686 -18.7945 -0.308036 -2.85481 -20.2176 8.64733 -3.18452 -23.0101 0.0 0.0 0.0 0.0 0.0 
1542.63 710.167 -514.293 171.259 -68.3591 172.51 -2.28654 0.0287475 -1.08756 -2.28589 0.0978891 -1.08352 -2.28718 0.364675 -1.025 -2.28859 0.198228 -1.06973 -16.8775 13.2393 9.55392 -17.0451 20.1004 13.771 -0.0 0.0 -0.0 1.70953 3.33203 3.58442 0.505246 -21.6976 69.0294 1.87085 -42.819 0.73359 -10.4508 -0.483193 1.24387 0.500604 1.90916 4.13084 -0.0 0.0 -0.0 9.85733 27.4118 -18.3891 -28.9746 35.1322 -56.3832 0.216835 6.13098 -0.0116124 11.9688 -0.265555 1.50308 3.55946 -4.97029 -26.4648 0.0 0.0 0.0 -9.04104 14.9932 0.973405 -40.6814 -0.510684 6.09339 13.3989 6.30034 -1.88159 -15.9224 0.0 0.0 -0.0 0.0 -0.0 37.1211 38.8053 -19.9546 -20.7247 -0.28632 -3.15016 -16.7308 11.6151 -2.67827 -21.8281 0.0 0.0 0.0 0.0 0.0 
1561.82 712.205 -505.57 170.374 -67.9949 172.172 -2.42234 -0.0357487 -0.956907 -2.42183 0.0252114 -0.957242 -2.42175 0.264981 -0.920185 -2.42291 0.116336 -0.950482 -16.5554 14.3017 8.80021 -16.8649 22.5066 13.4317 -0.0 0.0 -0.0 1.90379 2.92933 3.9137 -1.77047 -20.0997 68.5903 1.67677 -39.7105 0.605539 -13.587 -0.671694 1.59807 0.541126 1.79386 4.35359 -0.0 0.0 -0.0 10.0677 25.3742 -19.0812 -28.9315 38.2626 -53.4206 0.256697 7.24702 -0.0162558 10.3366 -0.247927 1.29535 3.67147 -6.94153 -28.0025 0.0 0.0 0.0 -6.91695 16.4977 -2.17461 -45.5206 -0.854799 6.75316 11.3803 4.9496 -1.61172 -13.5974 0.0 0.0 -0.0 0.0 -0.0 35.0687 32.7416 -18.9461 -22.8481 -0.250952 -3.47405 -18.5555 11.1299 -2.96404 -21.1043 0.0 0.0 0.0 0.0 0.0 
1578.96 711.96 -503.226 170.001 -67.6902 171.79 -2.55955 -0.0123988 -0.765721 -2.55922 0.0363496 -0.764958 -2.55938 0.229186 -0.730724 -2.56011 0.110909 -0.757748 -15.2697 14.8402 7.89305 -15.6127 23.8094 12.5133 -0.0 0.0 -0.0 1.90712 3.19171 3.94151 -3.11723 -18.9483 68.7773 1.50066 -36.624 0.496669 -13.9778 -0.696539 1.64148 0.528049 1.93978 4.32618 -0.0 0.0 -0.0 10.468 25.0676 -20.0111 -28.4559 40.1729 -50.5782 0.242362 6.84626 -0.0144972 8.67082 -0.223842 1.08394 3.5939 -8.68292 -28.0203 0.0 0.0 0.0 -4.17822 14.7666 -1.8339 -50.749 -1.28802 7.4312 10.4207 6.52635 -1.47943 -12.4791 0.0 0.0 -0.0 0.0 -0.0 37.0181 38.7316 -22.1399 -23.5127 -0.237417 -3.57514 -18.5264 12.8815 -2.99381 -21.0203 0.0 0.0 0.0 0.0 0.0 
1596.44 717.067 -500.997 170.767 -67.4543 171.994 -2.40038 -0.0447281 -0.514647 -2.40023 -0.0118896 -0.51645 -2.39996 0.118087 -0.502909 -2.40032 0.0371813 -0.515247 -17.3671 15.126 9.10397 -17.7983 24.0918 14.2354 -0.0 0.0 -0.0 1.79875 5.33168 3.91636 -3.78671 -16.357 70.0877 1.3824 -34.4015 0.427964 -15.2731 -0.780994 1.78414 0.445312 3.54856 4.43311 -0.0 0.0 -0.0 10.7514 24.3675 -20.7198 -26.7724 41.9901 -48.8931 0.254332 7.18095 -0.0159588 8.23456 -0.21652 1.02869 3.61073 -8.94074 -28.2311 0.0 0.0 0.0 -0.533849 14.6589 -2.31161 -53.5107 -1.54147 7.77287 3.24902 1.71226 -0.474651 -12.3349 0.0 0.0 -0.0 0.0 -0.0 32.8966 33.3541 -18.9036 -23.9213 -0.228514 -3.63721 -16.503 11.1631 -2.63379 -20.2942 0.0 0.0 0.0 0.0 0.0 
1619.43 727.171 -499.255 169.774 -67.0624 171.237 -2.68026 -0.00561925 -0.370165 -2.68018 0.0179465 -0.369772 -2.68022 0.111889 -0.352895 -2.68039 0.054752 -0.366136 -15.9105 16.0139 8.21688 -16.398 26.0093 13.4188 -0.0 0.0 -0.0 2.10611 7.55459 4.64184 -5.37997 -17.4962 69.8618 1.15101 -29.6897 0.305082 -17.6957 -0.947556 2.04575 0.454352 3.0787 4.30153 -0.0 0.0 -0.0 11.489 25.243 -22.3002 -26.7049 44.3022 -46.4311 0.264455 7.46361 -0.017249 6.44078 -0.181996 0.802164 3.38533 -11.0922 -27.2704 0.0 0.0 0.0 2.28044 14.6544 -3.91735 -56.8086 -1.86541 8.16455 2.1559 0.631092 -0.316657 -12.5023 0.0 0.0 -0.0 0.0 -0.0 30.2572 34.8764 -18.5529 -22.6881 -0.254034 -3.4497 -17.3803 12.2795 -2.79554 -19.5378 0.0 0.0 0.0 0.0 0.0 
1642.71 722.501 -498.188 170.059 -66.0661 171.208 -2.41164 0.0062537 -0.283303 -2.41159 0.0242682 -0.282331 -2.41167 0.0943929 -0.267189 -2.41177 0.051011 -0.278743 -14.9666 16.3332 9.20137 -15.318 25.8514 14.1822 -0.0 0.0 -0.0 1.92949 10.0087 4.51022 -6.96688 -17.0472 70.7168 0.923982 -24.5939 0.201413 -19.3738 -1.06937 2.22277 1.21785 4.1971 9.83255 -0.0 0.0 -0.0 11.5105 25.9649 -22.2707 -25.5962 46.1326 -44.9333 0.27378 7.72365 -0.0184812 6.24886 -0.177882 0.777992 3.5183 -10.0946 -27.9253 0.0 0.0 0.0 3.91913 13.7139 -3.69286 -59.8402 -2.18276 8.50782 -7.12352 -1.66327 1.07479 -12.6348 0.0 0.0 -0.0 0.0 -0.0 27.7822 33.0286 -16.9687 -24.4597 -0.216107 -3.71891 -13.4405 13.1632 -2.1682 -16.284 0.0 0.0 0.0 0.0 0.0 
1668.87 724.812 -498.59 168.729 -64.2747 169.816 -2.39473 0.110161 -0.181494 -2.39472 0.121487 -0.174117 -2.3951 0.16128 -0.138074 -2.3951 0.13745 -0.161812 -15.8578 16.6361 10.5956 -16.1885 25.8344 15.7885 -0.0 0.0 -0.0 1.51631 14.6101 4.16364 -8.26947 -16.582 71.1333 0.831388 -22.3839 0.164501 -20.5043 -1.15435 2.33999 1.17097 5.065 9.85748 -0.0 0.0 -0.0 11.6065 26.6188 -22.4145 -25.0421 47.5541 -42.8675 0.320262 9.01496 -0.0252473 5.66661 -0.164907 0.704747 3.30934 -10.3502 -26.4822 0.0 0.0 0.0 6.71157 14.8816 -4.4637 -61.9267 -2.41159 8.73423 -10.8827 -2.69071 1.65696 -11.7265 0.0 0.0 -0.0 0.0 -0.0 23.0855 31.0893 -14.5624 -24.4182 -0.21709 -3.71261 -9.25119 16.8213 -1.52657 -14.9352 0.0 0.0 0.0 0.0 0.0 
